<?xml version="1.0" encoding="UTF-8"?><svg id="b" xmlns="http://www.w3.org/2000/svg" viewBox="0 0 483.37 211.51"><defs><style>.d{fill:none;}.d,.e,.f,.g{stroke-width:0px;}.e{fill:#52646d;}.f{fill:#8e1c3f;}.g{fill:#fff;}</style></defs><g id="c"><rect class="f" width="240" height="211.51"/><path class="g" d="M35.61,108.7v68.82h-1.67v-68.82h1.67ZM205.41,177.52h-1.84v-68.82h1.84v68.82h0ZM201.68,180.22v-1.69h3.73v1.69h-3.73ZM85.88,154.39l-.1.05h-3.55v-6.9h6.76v6.9h-3l-.1-.05h0ZM155.02,154.39l-.13.07h-3.46v-6.91h6.75v6.91h-3.02l-.13-.07h0ZM201.68,177.52v-7.02c0-.11.15-2.62-1.58-4.46-.83-.89-1.96-1.45-3.34-1.7v-1.77h-3.44v1.81c-1.3.26-2.39.8-3.21,1.65-1.77,1.84-1.71,4.34-1.7,4.43v7.05h-26.66v-18.95h-.01l.26-.5-4.8-2.53h2.05v-9.07h-8.91v9.07h2.51l-4.76,2.53.26.5h-.02v18.95h-55.73v-18.95h-.02l.26-.5-4.83-2.54h2.03v-9.05h-8.91v9.05h2.59l-4.78,2.54.27.5h-.02v18.95h-42.53v-68.82h165.81v68.82h-.81ZM198.39,167.18c-.45-.47-1-.81-1.62-1.01v-.71c1.05.22,1.91.65,2.54,1.31,1.41,1.5,1.29,3.64,1.29,3.7v9.75h-.8v-8.76c0-.11.12-2.65-1.42-4.27h0ZM191.36,171.07s-.04-1.92,1.12-3.13c.24-.25.53-.43.84-.58v.03h3.44v-.02c.3.15.6.3.83.55,1.22,1.28,1.13,3.46,1.13,3.51v8.79h-7.36v-9.15h0ZM190.89,166.79c.62-.64,1.45-1.06,2.44-1.29v.69c-.62.21-1.16.55-1.61,1.01-1.48,1.53-1.43,3.81-1.43,3.89v9.13h-.8v-9.77s-.06-2.15,1.4-3.66h0ZM149.46,158.57l5.56-2.96,5.61,2.96h-11.18ZM152.38,169.44h5.34v7.81h-5.34v-7.81h0ZM149.43,159.65h11.24v17.6h-1.87v-8.89h-7.5v8.89h-1.87v-17.6h0ZM141.42,178.53h9.88v.03h7.5v-.03h29.61v1.69h-46.99v-1.69h0ZM140.34,179.54v.4h-1.95v-.4h1.95ZM128.52,178.53h8.79v1.69h-8.79v-1.69h0ZM127.44,179.54v.4h-1.95v-.4h1.95ZM116.04,178.53h8.37v1.69h-8.37v-1.69h0ZM114.96,179.54v.4h-1.95v-.4h1.95ZM102.66,178.53h9.27v1.69h-9.27v-1.69h0ZM101.58,179.54v.4h-1.96v-.4h1.96ZM80.32,158.57l5.56-2.96,5.61,2.96h-11.18ZM83.24,169.44h5.34v7.81h-5.34v-7.81h0ZM80.29,159.65h11.25v17.6h-1.88v-8.89h-7.5v8.89h-1.87v-17.6h0ZM73,178.53h9.16v.03h7.5v-.03h8.89v1.69h-25.55v-1.69h0ZM71.92,179.54v.4h-1.96v-.4h1.96ZM60.1,178.53h8.78v1.69h-8.78v-1.69h0ZM59.03,179.54v.4h-1.95v-.4h1.95ZM47.62,178.53h8.37v1.69h-8.37v-1.69h0ZM44.59,179.54h1.96v.4h-1.96v-.4h0ZM33.94,178.53h9.57v1.69h-9.57v-1.69h0ZM32.86,181.29h173.63v-73.67H32.86v73.67h0Z"/><path class="g" d="M42.19,112.23h6.75v10.91h-6.75v-10.91h0ZM41.11,124.22h8.91v-13.07h-8.91v13.07h0Z"/><path class="g" d="M54.53,112.23h6.76v10.91h-6.76v-10.91h0ZM53.45,124.22h8.91v-13.07h-8.91v13.07h0Z"/><path class="g" d="M67.4,112.23h6.75v10.91h-6.75v-10.91h0ZM66.32,124.22h8.91v-13.07h-8.91v13.07h0Z"/><path class="g" d="M110.51,112.23h6.75v10.91h-6.75v-10.91h0ZM109.43,124.22h8.91v-13.07h-8.91v13.07h0Z"/><path class="g" d="M123.24,112.23h6.76v10.91h-6.76v-10.91h0ZM122.16,124.22h8.91v-13.07h-8.91v13.07h0Z"/><path class="g" d="M136.87,112.23h6.76v10.91h-6.76v-10.91h0ZM135.79,124.22h8.91v-13.07h-8.91v13.07h0Z"/><path class="g" d="M82.23,112.23h6.76v10.91h-6.76v-10.91h0ZM81.15,124.22h8.91v-13.07h-8.91v13.07h0Z"/><path class="g" d="M97.07,112.23h6.75v10.91h-6.75v-10.91h0ZM95.99,124.22h8.91v-13.07h-8.91v13.07h0Z"/><path class="g" d="M166.01,112.23h6.76v10.91h-6.76v-10.91h0ZM164.93,124.22h8.91v-13.07h-8.91v13.07h0Z"/><path class="g" d="M178.74,112.23h6.75v10.91h-6.75v-10.91h0ZM177.67,124.22h8.91v-13.07h-8.91v13.07h0Z"/><path class="g" d="M191.22,112.23h6.76v10.91h-6.76v-10.91h0ZM190.14,124.22h8.91v-13.07h-8.91v13.07h0Z"/><path class="g" d="M151.42,112.23h6.75v10.91h-6.75v-10.91h0ZM150.34,124.22h8.91v-13.07h-8.91v13.07h0Z"/><path class="g" d="M42.19,131.26h6.75v7.83h-6.75v-7.83h0ZM41.11,140.16h8.91v-9.99h-8.91v9.99h0Z"/><path class="g" d="M54.53,131.26h6.76v7.83h-6.76v-7.83h0ZM53.45,140.16h8.91v-9.99h-8.91v9.99h0Z"/><path class="g" d="M67.4,131.26h6.75v7.83h-6.75v-7.83h0ZM66.32,140.16h8.91v-9.99h-8.91v9.99h0Z"/><path class="g" d="M110.51,131.26h6.75v7.83h-6.75v-7.83h0ZM109.43,140.16h8.91v-9.99h-8.91v9.99h0Z"/><path class="g" d="M123.24,131.26h6.76v7.83h-6.76v-7.83h0ZM122.16,140.16h8.91v-9.99h-8.91v9.99h0Z"/><path class="g" d="M136.87,131.26h6.76v7.83h-6.76v-7.83h0ZM135.79,140.16h8.91v-9.99h-8.91v9.99h0Z"/><path class="g" d="M82.23,131.26h6.76v7.83h-6.76v-7.83h0ZM81.15,140.16h8.91v-9.99h-8.91v9.99h0Z"/><path class="g" d="M97.07,131.26h6.75v7.83h-6.75v-7.83h0ZM95.99,140.16h8.91v-9.99h-8.91v9.99h0Z"/><path class="g" d="M166.01,131.26h6.76v7.83h-6.76v-7.83h0ZM164.93,140.16h8.91v-9.99h-8.91v9.99h0Z"/><path class="g" d="M178.74,131.26h6.75v7.83h-6.75v-7.83h0ZM177.67,140.16h8.91v-9.99h-8.91v9.99h0Z"/><path class="g" d="M191.22,131.26h6.76v7.83h-6.76v-7.83h0ZM190.14,140.16h8.91v-9.99h-8.91v9.99h0Z"/><path class="g" d="M151.42,131.26h6.75v7.83h-6.75v-7.83h0ZM150.34,140.16h8.91v-9.99h-8.91v9.99h0Z"/><path class="g" d="M42.19,147.55h6.75v7.83h-6.75v-7.83h0ZM41.11,156.46h8.91v-9.99h-8.91v9.99h0Z"/><path class="g" d="M54.53,147.55h6.76v7.83h-6.76v-7.83h0ZM53.45,156.46h8.91v-9.99h-8.91v9.99h0Z"/><path class="g" d="M67.4,147.55h6.75v7.83h-6.75v-7.83h0ZM66.32,156.46h8.91v-9.99h-8.91v9.99h0Z"/><path class="g" d="M110.51,147.55h6.75v7.83h-6.75v-7.83h0ZM109.43,156.46h8.91v-9.99h-8.91v9.99h0Z"/><path class="g" d="M123.24,147.55h6.76v7.83h-6.76v-7.83h0ZM122.16,156.46h8.91v-9.99h-8.91v9.99h0Z"/><path class="g" d="M136.87,147.55h6.76v7.83h-6.76v-7.83h0ZM135.79,156.46h8.91v-9.99h-8.91v9.99h0Z"/><path class="g" d="M97.07,147.55h6.75v7.83h-6.75v-7.83h0ZM95.99,156.46h8.91v-9.99h-8.91v9.99h0Z"/><path class="g" d="M166.01,147.55h6.76v7.83h-6.76v-7.83h0ZM164.93,156.46h8.91v-9.99h-8.91v9.99h0Z"/><path class="g" d="M178.74,147.55h6.75v7.83h-6.75v-7.83h0ZM177.67,156.46h8.91v-9.99h-8.91v9.99h0Z"/><path class="g" d="M191.22,147.55h6.76v7.83h-6.76v-7.83h0ZM190.14,156.46h8.91v-9.99h-8.91v9.99h0Z"/><path class="g" d="M42.19,165.33h6.75v8.65h-6.75v-8.65h0ZM41.11,175.05h8.91v-10.8h-8.91v10.8h0Z"/><path class="g" d="M54.53,165.33h6.76v8.65h-6.76v-8.65h0ZM53.45,175.05h8.91v-10.8h-8.91v10.8h0Z"/><path class="g" d="M67.4,165.33h6.75v8.65h-6.75v-8.65h0ZM66.32,175.05h8.91v-10.8h-8.91v10.8h0Z"/><path class="g" d="M110.51,165.33h6.75v8.65h-6.75v-8.65h0ZM109.43,175.05h8.91v-10.8h-8.91v10.8h0Z"/><path class="g" d="M123.24,165.33h6.76v8.65h-6.76v-8.65h0ZM122.16,175.05h8.91v-10.8h-8.91v10.8h0Z"/><path class="g" d="M136.87,165.33h6.76v8.65h-6.76v-8.65h0ZM135.79,175.05h8.91v-10.8h-8.91v10.8h0Z"/><path class="g" d="M97.07,165.33h6.75v8.65h-6.75v-8.65h0ZM95.99,175.05h8.91v-10.8h-8.91v10.8h0Z"/><path class="g" d="M166.01,165.33h6.76v8.65h-6.76v-8.65h0ZM164.93,175.05h8.91v-10.8h-8.91v10.8h0Z"/><path class="g" d="M178.74,165.33h6.75v8.65h-6.75v-8.65h0ZM177.67,175.05h8.91v-10.8h-8.91v10.8h0Z"/><path class="g" d="M85.71,87.5c-.63,0-1.15-.51-1.15-1.15s.51-1.15,1.15-1.15,1.15.51,1.15,1.15-.51,1.15-1.15,1.15h0ZM85.71,84.13c-1.23,0-2.22,1-2.22,2.23s1,2.22,2.22,2.22,2.22-1,2.22-2.22-1-2.23-2.22-2.23h0Z"/><path class="g" d="M154.95,87.5c-.63,0-1.15-.51-1.15-1.15s.51-1.15,1.15-1.15,1.15.51,1.15,1.15-.51,1.15-1.15,1.15h0ZM154.95,84.13c-1.23,0-2.22,1-2.22,2.23s1,2.22,2.22,2.22,2.22-1,2.22-2.22-1-2.23-2.22-2.23h0Z"/><path class="g" d="M63.85,88.28h-1.79v-2.24h1.79v2.24h0ZM63.85,84.97h-1.74l.9-.68.84.68h0ZM63.03,82.92l-2.51,1.9.45.59v3.96h3.95v-3.97l.46-.57-2.35-1.91h0Z"/><path class="g" d="M109.19,84.97h-1.74l.9-.68.84.68h0ZM109.19,88.28h-1.8v-2.24h1.8v2.24h0ZM106.31,89.36h3.96v-3.97l.46-.56-2.35-1.91-2.51,1.9.44.58v3.97h0Z"/><path class="g" d="M121.22,84.97h-1.74l.9-.68.84.68h0ZM121.22,88.28h-1.8v-2.24h1.8v2.24h0ZM118.34,89.36h3.95v-3.97l.46-.57-2.36-1.91-2.5,1.9.45.59v3.96h0Z"/><path class="g" d="M132.85,84.97h-1.74l.9-.68.84.68h0ZM132.85,88.28h-1.8v-2.24h1.8v2.24h0ZM129.97,89.36h3.95v-3.97l.46-.56-2.35-1.91-2.51,1.9.44.58v3.97h0Z"/><path class="g" d="M177.77,84.97h-1.74l.9-.68.84.68h0ZM177.77,88.28h-1.8v-2.24h1.8v2.24h0ZM174.89,89.36h3.95v-3.97l.46-.57-2.35-1.91-2.5,1.9.45.59v3.96h0Z"/><path class="g" d="M89.23,164.64h-6.5v-3.44h6.5v3.44h0ZM90.3,160.12h-8.65v5.6h8.65v-5.6h0Z"/><path class="g" d="M158.36,164.64h-6.49v-3.44h6.49v3.44h0ZM159.44,160.12h-8.65v5.6h8.65v-5.6h0Z"/><polygon class="g" points="82.22 179.94 89.53 179.94 89.53 178.86 82.22 178.86 82.22 179.94 82.22 179.94"/><polygon class="g" points="82.22 167.84 89.53 167.84 89.53 166.76 82.22 166.76 82.22 167.84 82.22 167.84"/><polygon class="g" points="151.41 179.94 158.71 179.94 158.71 178.86 151.41 178.86 151.41 179.94 151.41 179.94"/><polygon class="g" points="151.41 167.84 158.71 167.84 158.71 166.76 151.41 166.76 151.41 167.84 151.41 167.84"/><rect class="d" x="243.37" y="5.71" width="240" height="181.13"/><polygon class="e" points="480.52 120.55 246.21 120.55 246.21 118.4 480.52 118.4 480.52 120.55 480.52 120.55"/><polygon class="e" points="269.87 156.17 269.87 140.46 271.87 140.46 271.87 154.34 279.33 154.34 279.33 156.17 269.87 156.17 269.87 156.17"/><path class="e" d="M288.07,149.06c0-1.75-.97-3.32-2.89-3.32-1.7,0-3.04,1.38-3.04,3.47l5.93-.15h0ZM289.77,155.61c-.56.24-2.37.86-4.16.86-3.86,0-5.52-2.5-5.52-6.21,0-4.05,1.96-6.23,5.24-6.23,2.78,0,4.68,1.85,4.68,5.75,0,.37-.02.71-.02.84h-7.87c.13,2.99,1.4,4.09,3.54,4.09,1.51,0,3-.43,3.69-.62l.43,1.51h0Z"/><path class="e" d="M293.18,156.17v-11.81h1.96v11.81h-1.96ZM294.15,142.59c-.95,0-1.32-.32-1.32-1.21s.37-1.23,1.32-1.23,1.29.32,1.29,1.23-.37,1.21-1.29,1.21h0Z"/><path class="e" d="M300.94,152.81c.3.6,1.42,1.92,2.95,1.92,1.44,0,2.8-1.25,2.8-4.31,0-2.59-.43-4.64-2.85-4.64-1.68,0-2.63,1.46-2.91,2.18v4.85h0ZM298.98,156.17v-16.42h1.96v5.91c.37-.54,1.57-1.62,3.54-1.62,2.87,0,4.27,2.63,4.27,5.97s-1.29,6.47-4.74,6.47c-1.92,0-3.04-1.25-3.41-1.83l-.37,1.53h-1.25Z"/><path class="e" d="M319.27,156.17v-6.7c0-1.6-.02-3.56-2.2-3.56-1.25,0-2.28.69-3.3,1.68v8.58h-1.96v-11.81h1.25l.45,1.7c1.08-1.21,2.37-2.02,3.9-2.02,2.63,0,3.82,1.66,3.82,4.51v7.63h-1.96Z"/><path class="e" d="M324.91,156.17v-11.81h1.96v11.81h-1.96ZM325.88,142.59c-.95,0-1.32-.32-1.32-1.21s.37-1.23,1.32-1.23,1.29.32,1.29,1.23-.37,1.21-1.29,1.21h0Z"/><path class="e" d="M329.72,156.17v-1.51l5.28-7.11c.65-.88,1.19-1.4,1.36-1.55-.32.02-1.23.06-2.11.06h-4.4v-1.7h8.62v1.49l-5.28,7.11c-.6.82-1.14,1.4-1.34,1.57.3-.02,1.12-.06,2.09-.06h4.7v1.7h-8.92Z"/><polygon class="e" points="340.59 150.26 340.59 148.37 347.33 148.37 347.33 150.26 340.59 150.26 340.59 150.26"/><polygon class="e" points="350.47 156.17 350.47 140.46 352.47 140.46 352.47 156.17 350.47 156.17 350.47 156.17"/><path class="e" d="M364.48,156.17v-6.7c0-1.6-.02-3.56-2.2-3.56-1.25,0-2.28.69-3.3,1.68v8.58h-1.96v-11.81h1.25l.45,1.7c1.08-1.21,2.37-2.02,3.9-2.02,2.63,0,3.82,1.66,3.82,4.51v7.63h-1.96Z"/><path class="e" d="M370.24,154.1c.6.17,2.2.62,3.84.62,1.53,0,2.46-.52,2.46-1.7s-.56-1.51-2.84-1.98c-2.78-.56-3.77-1.59-3.77-3.64,0-1.86,1.55-3.36,4.44-3.36,1.38,0,2.78.28,3.82.69l-.43,1.57c-.47-.17-1.98-.52-3.34-.52-1.57,0-2.5.54-2.5,1.62,0,1.18.84,1.44,2.82,1.85,2.48.49,3.79,1.31,3.79,3.54s-1.68,3.68-4.38,3.68c-2.16,0-3.92-.71-4.33-.8l.43-1.57h0Z"/><path class="e" d="M387.34,155.78c-.43.24-1.51.69-2.67.69-.97,0-2.46-.56-2.46-3.15v-7.27h-1.79v-1.23l1.85-.45.34-2.61,1.55-.45v3.04h2.78v1.7h-2.78v7.42c0,1.08.6,1.25,1.06,1.25.63,0,1.16-.17,1.68-.36l.43,1.42h0Z"/><path class="e" d="M390.26,156.17v-11.81h1.96v11.81h-1.96ZM391.23,142.59c-.95,0-1.31-.32-1.31-1.21s.37-1.23,1.31-1.23,1.29.32,1.29,1.23-.37,1.21-1.29,1.21h0Z"/><path class="e" d="M401.99,155.78c-.43.24-1.51.69-2.67.69-.97,0-2.46-.56-2.46-3.15v-7.27h-1.79v-1.23l1.85-.45.34-2.61,1.55-.45v3.04h2.78v1.7h-2.78v7.42c0,1.08.6,1.25,1.06,1.25.63,0,1.16-.17,1.68-.36l.43,1.42h0Z"/><path class="e" d="M412.81,156.17l-.45-1.7c-1.08,1.21-2.37,2.02-3.9,2.02-2.65,0-3.86-1.66-3.86-4.5v-7.63h1.96v6.7c0,1.59.02,3.56,2.24,3.56,1.25,0,2.29-.69,3.3-1.68v-8.58h1.96v11.81h-1.25Z"/><path class="e" d="M423.7,155.78c-.43.24-1.51.69-2.67.69-.97,0-2.46-.56-2.46-3.15v-7.27h-1.79v-1.23l1.85-.45.34-2.61,1.55-.45v3.04h2.78v1.7h-2.78v7.42c0,1.08.6,1.25,1.06,1.25.63,0,1.16-.17,1.68-.36l.43,1.42h0Z"/><path class="e" d="M432.36,156.17v-10.11h-1.79v-1.1l1.79-.6v-1.36c0-3.15,2.37-3.51,3.17-3.51.71,0,1.64.24,2,.35l-.43,1.53c-.24-.05-.86-.15-1.29-.15-.65,0-1.49.26-1.49,1.79v1.36h2.59v1.7h-2.59v10.11h-1.96Z"/><path class="e" d="M445.51,142.53c-.86,0-1.19-.3-1.19-1.19s.32-1.16,1.19-1.16,1.19.3,1.19,1.16-.3,1.19-1.19,1.19h0ZM441.48,142.53c-.86,0-1.19-.3-1.19-1.19s.32-1.16,1.19-1.16,1.19.3,1.19,1.16-.3,1.19-1.19,1.19h0ZM447,156.17l-.45-1.7c-1.08,1.21-2.37,2.02-3.9,2.02-2.65,0-3.86-1.66-3.86-4.5v-7.63h1.96v6.7c0,1.59.02,3.56,2.24,3.56,1.25,0,2.29-.69,3.3-1.68v-8.58h1.96v11.81h-1.25Z"/><path class="e" d="M451.98,156.17v-11.81h1.21l.6,2.29c1.29-2.22,3.12-2.41,3.66-2.41.6,0,.97.04,1.08.06l-.24,2.03c-.13-.02-.45-.04-.69-.04-.93,0-2.35.28-3.66,2.07v7.82h-1.96Z"/><polygon class="e" points="245.86 182.05 245.86 166.34 255.33 166.34 255.33 168.15 247.87 168.15 247.87 172.98 254.01 172.98 254.01 174.79 247.87 174.79 247.87 180.24 255.8 180.24 255.8 182.05 245.86 182.05 245.86 182.05"/><path class="e" d="M266.35,182.05l-.45-1.7c-1.08,1.21-2.37,2.03-3.9,2.03-2.65,0-3.86-1.66-3.86-4.5v-7.63h1.96v6.7c0,1.6.02,3.56,2.24,3.56,1.25,0,2.29-.69,3.3-1.68v-8.58h1.96v11.81h-1.25Z"/><path class="e" d="M271.33,182.05v-11.81h1.21l.6,2.28c1.29-2.22,3.12-2.41,3.66-2.41.6,0,.97.04,1.08.06l-.24,2.03c-.13-.02-.45-.04-.69-.04-.93,0-2.35.28-3.66,2.07v7.82h-1.96Z"/><path class="e" d="M287.1,176.15c0-3.4-1.23-4.48-3.21-4.48s-3.21,1.08-3.21,4.48,1.23,4.46,3.21,4.46,3.21-1.14,3.21-4.46h0ZM278.65,176.15c0-3.79,1.9-6.23,5.24-6.23s5.24,2.44,5.24,6.23-1.9,6.21-5.24,6.21-5.24-2.44-5.24-6.21h0Z"/><path class="e" d="M294.15,178.69c.3.62,1.27,1.87,2.8,1.87s3.04-1.19,3.04-4.55-1.25-4.31-3.04-4.31c-1.32,0-2.31,1.1-2.8,1.77v5.22h0ZM292.19,186.3v-16.06h1.23l.41,1.51c.93-1.21,2.29-1.81,3.6-1.81,3.41,0,4.59,2.69,4.59,5.95,0,3.64-1.88,6.47-4.94,6.47-1.42,0-2.44-.82-2.93-1.36v5.3h-1.96Z"/><path class="e" d="M311.17,168.41c-.86,0-1.19-.3-1.19-1.19s.32-1.16,1.19-1.16,1.19.3,1.19,1.16-.3,1.19-1.19,1.19h0ZM307.13,168.41c-.86,0-1.19-.3-1.19-1.19s.32-1.16,1.19-1.16,1.19.3,1.19,1.16-.3,1.19-1.19,1.19h0ZM308.43,176.45c-1.85.06-2.5,1.01-2.5,2.05s.54,2.22,2.31,2.22c1.66,0,3.06-1.03,3.08-4.37l-2.89.11h0ZM312.03,182.05l-.45-1.7c-.45.73-1.57,2-3.75,2-1.66,0-3.92-.95-3.92-3.94,0-2.54,2.2-3.47,4.46-3.47h2.95v-.52c-.02-2.26-1.36-2.72-2.61-2.72s-3.04.45-3.43.56l-.47-1.6c.67-.19,2.48-.71,4.16-.71s4.31.6,4.31,4.57v7.52h-1.25Z"/><path class="e" d="M316.97,182.05v-11.81h1.96v11.81h-1.96ZM317.94,168.47c-.95,0-1.32-.32-1.32-1.21s.37-1.23,1.32-1.23,1.29.33,1.29,1.23-.37,1.21-1.29,1.21h0Z"/><path class="e" d="M322.38,179.98c.6.17,2.2.63,3.84.63,1.53,0,2.46-.52,2.46-1.7s-.56-1.51-2.85-1.98c-2.78-.56-3.77-1.59-3.77-3.64,0-1.85,1.55-3.36,4.44-3.36,1.38,0,2.78.28,3.82.69l-.43,1.57c-.47-.17-1.98-.52-3.34-.52-1.57,0-2.5.54-2.5,1.62,0,1.19.84,1.45,2.82,1.85,2.48.5,3.79,1.32,3.79,3.54s-1.68,3.68-4.38,3.68c-2.16,0-3.92-.71-4.33-.8l.43-1.57h0Z"/><path class="e" d="M341.62,181.51c-.6.28-2.11.84-3.73.84-3.45,0-5.11-2.5-5.11-6.21s1.85-6.23,5.32-6.23c1.44,0,2.78.45,3.32.69l-.43,1.53c-.88-.24-1.79-.47-2.85-.47-1.88,0-3.34.95-3.34,4.48,0,3.25,1.42,4.46,3.12,4.46,1.21,0,2.24-.3,3.25-.63l.43,1.53h0Z"/><path class="e" d="M351.58,182.05v-6.7c0-1.59-.02-3.56-2.2-3.56-1.25,0-2.28.69-3.3,1.68v8.58h-1.96v-16.42h1.96v6.06c1.01-1.08,2.24-1.77,3.64-1.77,2.63,0,3.82,1.66,3.82,4.51v7.63h-1.96Z"/><path class="e" d="M364.39,174.94c0-1.75-.97-3.32-2.89-3.32-1.7,0-3.04,1.38-3.04,3.47l5.93-.15h0ZM366.09,181.49c-.56.24-2.37.86-4.16.86-3.86,0-5.52-2.5-5.52-6.21,0-4.05,1.96-6.23,5.24-6.23,2.78,0,4.68,1.86,4.68,5.75,0,.37-.02.71-.02.84h-7.87c.13,3,1.4,4.1,3.54,4.1,1.51,0,3-.43,3.69-.63l.43,1.51h0Z"/><path class="e" d="M384.66,182.05l-.28-1.08c-1.12.97-2.57,1.43-3.97,1.43-4.81,0-6.64-3.67-6.64-8.21,0-5.17,2.74-8.21,7.2-8.21,2.01,0,3.97.62,4.7.93l-.45,1.64c-.69-.24-2.5-.71-4.25-.71-2.89,0-5.11,1.66-5.11,6.36,0,4.42,1.7,6.4,4.83,6.4,1.34,0,2.46-.56,3.23-1.25v-3.62h-3.25v-1.86h5.22v8.19h-1.23Z"/><path class="e" d="M396.57,174.94c0-1.75-.97-3.32-2.89-3.32-1.7,0-3.04,1.38-3.04,3.47l5.93-.15h0ZM398.27,181.49c-.56.24-2.37.86-4.16.86-3.86,0-5.52-2.5-5.52-6.21,0-4.05,1.96-6.23,5.24-6.23,2.78,0,4.68,1.86,4.68,5.75,0,.37-.02.71-.02.84h-7.87c.13,3,1.4,4.1,3.54,4.1,1.51,0,3-.43,3.69-.63l.43,1.51h0Z"/><path class="e" d="M401.17,179.98c.6.17,2.2.63,3.84.63,1.53,0,2.46-.52,2.46-1.7s-.56-1.51-2.85-1.98c-2.78-.56-3.77-1.59-3.77-3.64,0-1.85,1.55-3.36,4.44-3.36,1.38,0,2.78.28,3.82.69l-.43,1.57c-.47-.17-1.98-.52-3.34-.52-1.57,0-2.5.54-2.5,1.62,0,1.19.84,1.45,2.82,1.85,2.48.5,3.79,1.32,3.79,3.54s-1.68,3.68-4.38,3.68c-2.16,0-3.92-.71-4.33-.8l.43-1.57h0Z"/><path class="e" d="M420.4,181.51c-.6.28-2.11.84-3.73.84-3.45,0-5.11-2.5-5.11-6.21s1.85-6.23,5.32-6.23c1.44,0,2.78.45,3.32.69l-.43,1.53c-.88-.24-1.79-.47-2.85-.47-1.87,0-3.34.95-3.34,4.48,0,3.25,1.42,4.46,3.12,4.46,1.21,0,2.24-.3,3.25-.63l.43,1.53h0Z"/><path class="e" d="M430.36,182.05v-6.7c0-1.59-.02-3.56-2.2-3.56-1.25,0-2.28.69-3.3,1.68v8.58h-1.96v-16.42h1.96v6.06c1.01-1.08,2.24-1.77,3.64-1.77,2.63,0,3.82,1.66,3.82,4.51v7.63h-1.96Z"/><path class="e" d="M436,182.05v-11.81h1.96v11.81h-1.96ZM436.97,168.47c-.95,0-1.32-.32-1.32-1.21s.37-1.23,1.32-1.23,1.29.33,1.29,1.23-.37,1.21-1.29,1.21h0Z"/><path class="e" d="M449.86,181.51c-.6.28-2.11.84-3.73.84-3.45,0-5.11-2.5-5.11-6.21s1.85-6.23,5.32-6.23c1.44,0,2.78.45,3.32.69l-.43,1.53c-.88-.24-1.79-.47-2.85-.47-1.88,0-3.34.95-3.34,4.48,0,3.25,1.42,4.46,3.12,4.46,1.21,0,2.24-.3,3.25-.63l.43,1.53h0Z"/><path class="e" d="M459.82,182.05v-6.7c0-1.59-.02-3.56-2.2-3.56-1.25,0-2.28.69-3.3,1.68v8.58h-1.96v-16.42h1.96v6.06c1.01-1.08,2.24-1.77,3.64-1.77,2.63,0,3.82,1.66,3.82,4.51v7.63h-1.96Z"/><path class="e" d="M470.61,181.67c-.43.24-1.51.69-2.67.69-.97,0-2.46-.56-2.46-3.15v-7.26h-1.79v-1.23l1.85-.45.35-2.61,1.55-.45v3.04h2.78v1.7h-2.78v7.41c0,1.08.6,1.25,1.06,1.25.63,0,1.16-.17,1.68-.37l.43,1.42h0Z"/><path class="e" d="M479.62,174.94c0-1.75-.97-3.32-2.89-3.32-1.7,0-3.04,1.38-3.04,3.47l5.93-.15h0ZM481.33,181.49c-.56.24-2.37.86-4.16.86-3.86,0-5.52-2.5-5.52-6.21,0-4.05,1.96-6.23,5.24-6.23,2.78,0,4.68,1.86,4.68,5.75,0,.37-.02.71-.02.84h-7.87c.13,3,1.4,4.1,3.54,4.1,1.51,0,3-.43,3.69-.63l.43,1.51h0Z"/><polygon class="f" points="291.72 98.81 291.72 91.02 296.27 91.02 296.27 39 291.72 39 291.72 31.21 309.43 31.21 309.43 39 304.89 39 304.89 91.02 309.43 91.02 309.43 98.81 291.72 98.81 291.72 98.81"/><polygon class="f" points="328.54 98.81 328.54 31.21 369.25 31.21 369.25 39 337.16 39 337.16 59.77 363.59 59.77 363.59 67.56 337.16 67.56 337.16 91.02 371.29 91.02 371.29 98.81 328.54 98.81 328.54 98.81"/><path class="f" d="M429.25,98.81l-1.21-4.64c-4.82,4.17-11.04,6.12-17.06,6.12-20.68,0-28.56-15.77-28.56-35.34,0-22.26,11.78-35.34,30.98-35.34,8.63,0,17.06,2.69,20.22,3.99l-1.95,7.05c-2.97-1.02-10.76-3.06-18.27-3.06-12.43,0-21.98,7.14-21.98,27.36,0,19.01,7.33,27.54,20.77,27.54,5.75,0,10.57-2.41,13.91-5.38v-15.58h-14v-7.97h22.44v35.24h-5.29Z"/><path class="g" d="M48.33,76.31l-4.24,25.5-3.81-4.27-3.56,2.86,11.61-24.09h0ZM50.18,72.14l.2-3.05.2,3.05h-.41ZM82.86,77.68c-.78.71-1.3,1.69-1.42,2.8h-1.1v.35h-.18v4.19c-.43.09-.8.31-1.12.63-.83.85-1.03,2.29-1.09,3.06-.67.1-1.19.39-1.56.87-.98,1.28-.4,3.43-.37,3.52l.14-.04v9.4h-4.51v-4.24l.02.02.68-.84-3.09-2.5-3.29,2.49.65.86.03-.02v4.23h-7.02v-4.24l.02.02.68-.84-3.09-2.5-3.29,2.49.65.86.03-.02v4.23h-9.57l4.86-29.25h30.85v1.63l2.07,2.83h0ZM81.87,70.77h1.71v1.37h-1.71v-1.37h0ZM81.87,60.46h1.71v9.23h-1.71v-9.23h0ZM83.05,56.15c.06-.03.19-.05.31-.07h1.09l-1.09,3.3h-1.92l-.15-.24c.09-.57.48-2.44,1.76-2.99h0ZM83.95,49.59h.54v5.3c-.18,0-.36.02-.54.04v-5.34h0ZM83.5,47.8c.42-.62.87-1.27,1.01-1.84.23-.94.97-11.27,1.5-19.02.5,7.8,1.19,17.92,1.46,18.71.7,1.15,1.25,2.28,1.46,2.85h-5.88c.12-.21.29-.46.46-.7h0ZM90.41,59.14l-.15.24h-1.59l-1.04-3.3h.71c.12.02.25.04.31.07,1.29.54,1.67,2.42,1.76,2.99h0ZM88.19,72.14v-1.37h1.64v1.37h-1.64ZM150.01,73.22v1.63l2.07,2.83c-.78.71-1.3,1.69-1.42,2.8h-1.08v.35h-.18v4.19c-.43.09-.8.31-1.12.63-.83.85-1.03,2.29-1.08,3.06-.67.1-1.19.39-1.56.87-.89,1.16-.5,3.02-.4,3.43v9.45h-4.48v-4.24l.02.02.68-.84-3.09-2.5-3.29,2.49.65.86.03-.02v4.23h-6.89v-4.24l.02.02.68-.84-3.09-2.5-3.29,2.49.65.86.04-.03v4.24h-6.99v-4.24l.02.02.68-.84-3.09-2.5-3.29,2.49.65.86.04-.03v4.24h-7.02v-4.24l.02.02.68-.84-3.09-2.5-3.29,2.49.65.86.03-.02v4.23h-4.58v-9.38l.08.02c.03-.09.6-2.24-.37-3.52-.37-.48-.89-.77-1.56-.87-.05-.77-.26-2.21-1.09-3.06-.32-.33-.7-.54-1.12-.63v-4.19h-.17v-.35h-.9c-.11-1.09-.61-2.06-1.37-2.77l2.1-2.87v-1.63h59.1ZM151.09,70.77h1.71v1.37h-1.71v-1.37h0ZM151.09,60.46h1.71v9.23h-1.71v-9.23h0ZM152.27,56.15c.06-.03.19-.05.31-.07h1.09l-1.1,3.3h-1.92l-.15-.24c.09-.57.47-2.44,1.76-2.99h0ZM153.18,49.59h.54v5.3c-.18,0-.36.02-.54.04v-5.34h0ZM152.72,47.8c.43-.62.87-1.27,1.01-1.84.23-.94.97-11.27,1.5-19.02.5,7.8,1.19,17.92,1.46,18.71.7,1.15,1.24,2.28,1.46,2.85h-5.88c.12-.21.29-.46.46-.7h0ZM159.63,59.14l-.15.24h-1.6l-1.04-3.3h.71c.12.02.25.04.31.07,1.29.54,1.67,2.42,1.77,2.99h0ZM157.41,72.14v-1.37h1.64v1.37h-1.64ZM190.57,73.22l4.59,29.25h-10.2v-4.24l.02.02.68-.84-3.09-2.5-3.29,2.49.65.86.04-.03v4.24h-5.82v-4.24l.02.02.68-.84-3.09-2.5-3.29,2.49.65.86.03-.03v4.24h-4.76v-9.43l.25.07c.03-.09.6-2.24-.38-3.52-.37-.49-.89-.78-1.56-.87-.05-.77-.26-2.21-1.09-3.06-.32-.33-.69-.54-1.12-.63v-4.19h-.17v-.35h-.92c-.11-1.09-.61-2.06-1.37-2.77l2.1-2.87v-1.63h30.44ZM190.01,69.09l.2,3.05h-.41l.2-3.05h0ZM199.22,97.07l-3.11,4.52-3.92-24.97,10.3,23.14-3.27-2.69h0ZM180.73,97.65l1.81-1.37,1.69,1.37h-3.51ZM181.04,98.73h2.84v3.44h-2.84v-3.44h0ZM169.91,97.65l1.81-1.37,1.69,1.37h-3.51ZM170.22,98.73h2.84v3.44h-2.84v-3.44h0ZM164.38,105.16v-1.61h31.69l3.37-4.9,7.92,6.51h-42.98ZM162.88,105.16v-1.61h.43v1.61h-.43ZM146.32,93.67h.58v8.8h-.58v-8.8h0ZM162.88,93.67h.43v8.8h-.43v-8.8h0ZM159.92,102.47v-7.13h-8.91v7.13h-3.03v-8.8h13.82v8.8h-1.88ZM161.8,103.55v1.61h-13.82v-1.61h13.82ZM152.09,102.2v-5.78h6.75v5.78h-6.75ZM155.04,77.61c1.68,0,3.06,1.26,3.29,2.88h-6.58c.23-1.62,1.61-2.88,3.29-2.88h0ZM157.41,73.22h1.64v1.28l-1.64,2.24v-3.53h0ZM156.33,73.22v3.53c-.41-.13-.84-.22-1.29-.22-.4,0-.79.07-1.16.18v-3.48h2.45ZM156.33,70.77v1.37h-2.45v-1.37h2.45ZM156.33,60.46v9.23h-2.45v-9.23h2.45ZM159.05,69.69h-1.64v-9.23h1.64v9.23h0ZM155.74,56.08l1.02,3.3h-3.05l1.09-3.3h.94ZM157.24,54.95c-.21-.02-.42-.04-.63-.05v-5.31h.63v5.36h0ZM155.53,49.59v5.27c-.14,0-.26,0-.32,0h-.27s-.09,0-.14,0v-5.27h.74ZM151.09,73.22h1.71v3.62l-1.71-2.34v-1.28h0ZM146.5,90.25c.25-.33.65-.49,1.22-.49h.56s-.01-.55-.01-.55c-.01-.54.11-2.1.79-2.8.24-.25.53-.36.89-.36h.54v-4.48h8.93v4.48h.54c.35,0,.64.12.88.36.69.7.81,2.26.79,2.8v.55s.54,0,.54,0h0c.57,0,.97.16,1.22.49.48.63.36,1.76.24,2.34h-17.38c-.13-.58-.24-1.71.24-2.34h0ZM146.32,103.55h.58v1.61h-.58v-1.61h0ZM136.54,97.65l1.81-1.37,1.7,1.37h-3.51ZM136.85,98.73h2.84v3.44h-2.84v-3.44h0ZM124.66,97.65l1.81-1.37,1.69,1.37h-3.51ZM124.97,98.73h2.83v3.44h-2.83v-3.44h0ZM112.67,97.65l1.82-1.37,1.69,1.37h-3.51ZM112.98,98.73h2.84v3.44h-2.84v-3.44h0ZM100.66,97.65l1.81-1.37,1.69,1.37h-3.5ZM100.96,98.73h2.84v3.44h-2.84v-3.44h0ZM95.31,105.16v-1.61h49.94v1.61h-49.94ZM93.76,105.16v-1.61h.47v1.61h-.47ZM77.24,93.67h.54v8.8h-.54v-8.8h0ZM93.76,93.67h.47v8.8h-.47v-8.8h0ZM90.07,102.47v-7.13h-8.91v7.13h-2.3v-8.8h13.82v8.8h-2.62ZM82.23,102.2v-5.78h6.76v5.78h-6.76ZM78.86,103.55h13.82v1.61h-13.82v-1.61h0ZM85.82,77.61c1.68,0,3.06,1.26,3.29,2.88h-6.58c.23-1.62,1.61-2.88,3.29-2.88h0ZM88.19,73.22h1.64v1.28l-1.64,2.24v-3.53h0ZM87.11,73.22v3.53c-.41-.13-.84-.22-1.29-.22-.4,0-.79.07-1.16.18v-3.48h2.45ZM87.11,70.77v1.37h-2.45v-1.37h2.45ZM87.11,60.46v9.23h-2.45v-9.23h2.45ZM89.83,69.69h-1.64v-9.23h1.64v9.23h0ZM86.52,56.08l1.02,3.3h-3.05l1.1-3.3h.94ZM88.02,54.95c-.21-.02-.42-.04-.63-.05v-5.31h.63v5.36h0ZM86.31,49.59v5.27c-.14,0-.26,0-.33,0h-.27s-.09,0-.14,0v-5.27h.74ZM81.87,73.22h1.71v3.62l-1.71-2.34v-1.28h0ZM77.25,90.25c.25-.33.65-.49,1.22-.49h.56s-.01-.55-.01-.55c-.01-.54.11-2.1.79-2.8.24-.25.53-.36.89-.36h.54v-4.48h8.93v4.48h.54c.36,0,.65.12.89.36.69.7.81,2.26.79,2.8v.55s.54,0,.54,0h0c.57,0,.97.16,1.21.48.48.63.36,1.76.24,2.35h-17.38c-.13-.58-.25-1.71.23-2.34h0ZM77.24,103.55h.54v1.61h-.54v-1.61h0ZM67.43,97.65l1.81-1.37,1.7,1.37h-3.51ZM67.74,98.73h2.84v3.44h-2.84v-3.44h0ZM55.41,97.65l1.82-1.37,1.69,1.37h-3.51ZM55.72,98.73h2.84v3.44h-2.84v-3.44h0ZM32.52,105.16l7.64-6.13,4.04,4.53h31.97v1.61h-43.65ZM76.16,106.23h134.21l-6.02-4.95-12.98-29.15h-.08l-.27-4.09c.18-.27.3-.61.3-1.01,0-.49-.18-.91-.44-1.2l-.32-4.9h-1.07l-.33,4.99c-.22.29-.36.68-.36,1.12,0,.33.09.62.22.87l-.28,4.23h-28.6v-11.74l.62-1.02-.02-.18c-.01-.13-.33-3.12-2.41-4.03v-5.53c.32-.08.66-.21.84-.46.13-.17.17-.38.14-.58-.12-.64-.95-2.28-1.64-3.39-.21-.76-.91-11.13-1.5-20.47.27-.25.44-.61.44-1.01,0-.46-.24-.85-.57-1.1-.09-1.42-.17-2.8-.25-4.1h-1.08c-.08,1.3-.18,2.68-.27,4.11-.33.25-.56.63-.56,1.09,0,.39.16.74.42.99-.64,9.52-1.41,20.16-1.62,20.98-.09.38-.51.99-.85,1.48-.32.47-.6.88-.72,1.22l.04.57c.16.3.55.49.95.62v5.48c-.09.02-.18.05-.24.07-2.11.89-2.42,3.92-2.44,4.05l-.02.18.61,1.02v9.29h-.06v1.08h.06v1.37h-59.1v-11.74l.61-1.02-.02-.18c-.01-.13-.32-3.12-2.4-4.03v-5.53c.32-.08.66-.21.84-.46.13-.17.18-.38.14-.58-.12-.63-.97-2.31-1.64-3.39-.2-.75-.91-11.13-1.5-20.47.27-.26.45-.61.45-1.01,0-.46-.24-.85-.58-1.1-.09-1.42-.17-2.8-.25-4.09h-1.08c-.08,1.3-.18,2.68-.27,4.11-.33.25-.56.63-.56,1.09,0,.39.16.74.42.99-.64,9.52-1.41,20.16-1.62,20.98-.09.38-.51.99-.85,1.48-.32.47-.6.88-.72,1.22l.04.57c.16.3.55.49.95.62v5.48c-.09.02-.18.05-.24.07-2.11.89-2.43,3.92-2.44,4.05l-.02.18.62,1.02v9.29h-.06v1.08h.06v1.37h-29.13l-.27-4.09c.18-.28.3-.61.3-1.01,0-.49-.18-.91-.44-1.2l-.32-4.9h-1.08l-.33,4.99c-.22.28-.36.67-.36,1.12,0,.33.09.61.22.87l-.29,4.34-14.16,29.4-.1.28-5.38,4.31h46.71Z"/></g></svg>